<svg viewBox="0 0 200 200" xmlns="http://www.w3.org/2000/svg">
    <!-- Background -->
    <!-- 背景 -->
    <circle cx="100" cy="100" r="100" fill="#29f1fb" />

    <g transform="translate(30, 45) scale(0.4)">
        <path d="M206.41,19c23.5,0,47-.12,70.49,0,45,.28,86.29,29,102,70.92,6.77,18.1,8.24,36.83,6.31,56.06-2.83,28.24-11.26,54.45-27.23,77.94-24.64,36.26-59.37,56.41-102.38,63.12-14.58,2.27-29.21,2-43.86,2-6.08,0-9.33-2.78-9.69-7.81-.39-5.39,3-9.53,9-9.89,6.64-.41,13.33-.07,20-.25,40.49-1.1,75.55-15.05,103.32-45,19.46-21,29.32-46.58,32.66-74.77,2.32-19.56,2.07-39-5.66-57.53C349.51,65.44,328.26,48.06,299,40c-11.36-3.13-23-3.72-34.65-3.79-43.49-.26-87-.1-130.48-.11-1.83,0-3.68.07-5.5-.09a8.75,8.75,0,0,1-7.93-8.22,8.54,8.54,0,0,1,7-8.53,33.71,33.71,0,0,1,6-.29q36.49,0,73,0Z" transform="translate(-18.07 -18.94)" style="fill:#FFFFFF" />
        <path d="M161.87,227h-78a37.77,37.77,0,0,1-5-.11c-4.51-.61-7.35-3.2-7.79-7.76s1.7-7.68,6-9.28c2.73-1,5.59-.79,8.41-.79,51.31,0,102.63.08,153.94-.09,18-.06,33.54-6.73,45.89-19.93,10.59-11.32,16.14-25,17.79-40.4,1.3-12.08-.42-23.19-7.92-33.05-8.34-11-19.61-16.52-33.16-16.58-48.48-.21-97-.08-145.44-.15-5.15,0-10.31-.42-15.44-.9-4.43-.41-6.88-3.08-7.18-7.54-.33-4.86,2.16-8.36,6.57-9.21A23.76,23.76,0,0,1,105,81Q183,81,261,81c26.21.05,48.87,15.9,57.13,40.68,5.86,17.59,3.77,35.32-2.8,52.37C302.71,206.78,273,226.91,237.84,227,212.52,227.07,187.19,227,161.87,227Z" transform="translate(-18.07 -18.94)" style="fill:#FFFFFF" />
        <path d="M45.55,98c-6,0-12,.08-18,0-5-.09-8.84-3.38-9.41-7.86s2.24-8.33,7.65-9.43a47.28,47.28,0,0,1,8.94-.59c8.16-.07,16.33-.09,24.49,0a31.86,31.86,0,0,1,7.4.86c4.41,1.12,6.82,4.88,6.3,9.45s-3.28,7.32-7.9,7.47c-6.49.22-13,.06-19.49.06Z" transform="translate(-18.07 -18.94)" style="fill:#FFFFFF" />
        <path d="M155,289c-5.66,0-11.32.1-17,0-5.38-.12-9-3.17-9.55-7.67a9,9,0,0,1,8.11-9.75,236.26,236.26,0,0,1,36.38-.05,8.4,8.4,0,0,1,8,9.23c-.37,5-3.89,8.06-9.45,8.28H155Z" transform="translate(-18.07 -18.94)" style="fill:#FFFFFF" />
    </g>
</svg>
