<svg viewBox="0 0 200 200" xmlns="http://www.w3.org/2000/svg">
    <style type="text/css">
        .st0{fill:#FFFFFF;}
    </style>

    <!-- Background circle -->
    <!-- 背景 -->
    <circle cx="100" cy="100" r="100" fill="#ED1C24" />

    <g transform="translate(45, 20) scale(0.9)">
        <g>
            <path class="st0" d="M34.6,35.7c0,0-69.5,42.4-4,84.5c12.6,8.2,58.3,31,57,52.1c0,0,27.7-41-12.8-66.8 C33.2,79.1,22.8,50.9,34.6,35.7z" />
            <path class="st0" d="M10.4,116.7c0,0-24.8,37.6,24,45.3c4.8,0.6,40.1,4.3,49.3,15.9c0,0-0.8-20-29.6-31.8 C25.4,134.3,13.6,131.4,10.4,116.7z" />
            <path class="st0" d="M106.4,77.2C76.6,46,68.3,26.7,81.1,1.7c0,0-88.9,34.2-1.1,94.9c31.4,21.7,26.2,43.9,26.2,44.7 C111.1,136.2,136.2,108.4,106.4,77.2z" />
        </g>
    </g>
</svg>
