<svg viewBox="0 0 200 200" xmlns="http://www.w3.org/2000/svg">
    <style id="style1117" type="text/css">
        .st0{fill-rule:evenodd;clip-rule:evenodd;fill:#9E2878;}
    </style>

    <!-- Background circle -->
    <!-- 背景 -->
    <circle cx="100" cy="100" r="100" fill="#FFFFFF" />

    <circle cx="100" cy="100" r="100" fill="none" stroke="#E1E8ED" stroke-width="2" />

    <g transform="translate(30, 30) scale(1.3)">
        <g transform="translate(-244.51235,-228.78793)" id="g1133">
            <path style="clip-rule:evenodd;fill:#9e2878;fill-rule:evenodd" id="path1119" d="m 341.6,253.4 c 2.6,-1 5.6,0.4 6.3,3 0.7,2.6 -1.1,5.8 -3.7,6.5 -3.2,0.6 -6.3,-1.4 -9.4,0.2 -3.1,1.7 -4,5.3 -4.7,8.4 -1.4,5.1 -8.6,7.4 -12.2,4.2 -3.3,-2.4 -3.4,-7.9 -0.2,-11.1 2.2,-2.5 6,-3.3 8.9,-2 2.7,1.2 6.1,1.7 8.7,-0.4 3,-2.4 2.2,-7.5 6.3,-8.8 z" class="st0" />
            <path style="clip-rule:evenodd;fill:#9e2878;fill-rule:evenodd" id="path1121" d="m 280.7,244.2 c 4.2,-2.2 9.6,1.5 8.3,6.2 -1.4,5.5 -0.7,11.6 2.9,15.7 3.4,4 9.9,4.8 14.8,1.9 3.7,-2.1 6.1,-5.9 7.5,-9.7 1,-3.1 0.6,-6.3 1.1,-9.4 1,-3.8 5.9,-6.1 9.2,-4.2 3.2,1.4 4,6 1.7,8.9 -1.4,2.2 -4.2,2.7 -6.4,3.8 -3.6,1.9 -6.6,5 -8.5,8.7 -1.2,2.1 -1.1,4.5 -1.7,6.8 -0.9,1.9 -3,2.7 -4.9,2.9 -4.8,0.6 -9.6,3 -13.1,6.8 -1.7,1.7 -3.1,4.2 -5.7,4.2 -2.7,-0.2 -4.7,-2.6 -7.5,-2.7 -5,-0.7 -10.3,0.7 -14.5,4 -3.7,3.1 -9.5,0.8 -9.7,-3.7 -0.9,-5.2 6.3,-9.6 10.2,-6.3 4.3,4 10.9,5.7 17.1,3.7 5.7,-1.9 9.8,-8.4 8.7,-14.1 -0.9,-5 -4.2,-9.4 -8.7,-11.5 -1.7,-0.8 -3.6,-1.6 -4.2,-3.5 -1.6,-2.9 0.2,-7 3.4,-8.5 z" class="st0" />
            <path style="clip-rule:evenodd;fill:#9e2878;fill-rule:evenodd" id="path1123" d="m 278,235.3 c 2.2,-0.8 4.2,1.3 3.3,3.4 -0.6,2.1 -3.7,2.7 -4.9,1.1 -1.3,-1.4 -0.3,-4 1.6,-4.5 z" class="st0" />
            <path style="clip-rule:evenodd;fill:#9e2878;fill-rule:evenodd" id="path1125" d="m 246.7,278.7 c 2.2,-0.8 4.2,1.2 3.3,3.4 -0.6,2.1 -3.7,2.7 -4.9,1 -1.3,-1.3 -0.3,-3.9 1.6,-4.4 z" class="st0" />
            <path style="clip-rule:evenodd;fill:#9e2878;fill-rule:evenodd" id="path1127" d="m 328.9,235.6 c 2.2,-0.7 4.2,1.3 3.3,3.5 -0.6,2 -3.7,2.7 -4.9,1 -1.2,-1.4 -0.3,-3.9 1.6,-4.5 z" class="st0" />
            <path style="clip-rule:evenodd;fill:#9e2878;fill-rule:evenodd" id="path1129" d="m 253.5,257.4 c 0.4,-3.7 5.6,-6 8.2,-3.6 1.9,1.1 1.6,3.6 2.2,5.5 0.4,2.4 2.7,4.3 5.3,4.3 3.2,0.3 6.5,-2.3 9.6,-1.2 4.8,1.2 6.6,7.6 3.2,11.6 -2.9,4.1 -9.4,4.5 -12.1,0.7 -2.4,-2.8 -0.5,-7.2 -2.7,-10.2 -1.7,-2.9 -5.5,-2.7 -8.4,-1.9 -3.1,0.9 -5.9,-2.2 -5.3,-5.2 z" class="st0" />
            <path style="clip-rule:evenodd;fill:#9e2878;fill-rule:evenodd" id="path1131" d="m 301.2,229.4 c 3.3,-1.9 7.6,0.9 6.8,4.6 0,2.3 -2.2,3.6 -3.5,5.3 -1.9,1.9 -2.3,5 -1.2,7.1 1.3,2.9 5,4 5.6,7.3 1.2,4.8 -3.3,10.2 -8.3,9.9 -4.8,0.1 -8.4,-5.1 -6.4,-9.6 1.2,-3.8 5.9,-5 7.3,-8.6 1.7,-3.2 -0.4,-6.2 -2.4,-8.2 -2,-2.2 -0.8,-6.4 2.1,-7.8 z" class="st0" />
        </g>
        <g transform="translate(-244.51235,-228.78793)" id="g1149">
            <path style="clip-rule:evenodd;fill:#9e2878;fill-rule:evenodd" id="path1135" d="m 255.9,311.7 c -2.6,1 -5.6,-0.4 -6.3,-3 -0.7,-2.6 1.1,-5.8 3.7,-6.5 3.2,-0.6 6.3,1.4 9.4,-0.2 3.1,-1.6 4,-5.2 4.7,-8.3 1.4,-5.1 8.6,-7.4 12.2,-4.2 3.3,2.4 3.4,7.9 0.2,11 -2.2,2.5 -6,3.3 -8.9,2 -2.7,-1.2 -6.1,-1.7 -8.7,0.4 -3.1,2.3 -2.3,7.5 -6.3,8.8 z" class="st0" />
            <path style="clip-rule:evenodd;fill:#9e2878;fill-rule:evenodd" id="path1137" d="m 316.7,320.8 c -4.2,2.2 -9.6,-1.5 -8.3,-6.1 1.4,-5.5 0.7,-11.7 -2.9,-15.8 -3.4,-4 -9.9,-4.7 -14.8,-1.9 -3.7,2 -6.1,5.8 -7.5,9.6 -1,3.1 -0.6,6.3 -1.1,9.4 -1,3.8 -5.9,6.1 -9.2,4.3 -3.2,-1.4 -4,-6 -1.7,-9 1.4,-2.2 4.2,-2.7 6.4,-3.8 3.6,-1.9 6.6,-5 8.5,-8.7 1.2,-2 1.1,-4.5 1.7,-6.7 0.9,-1.9 3,-2.7 4.9,-2.9 4.8,-0.6 9.6,-3 13.1,-6.8 1.7,-1.6 3.1,-4.2 5.7,-4.1 2.7,0.1 4.7,2.5 7.5,2.7 5,0.6 10.3,-0.8 14.5,-4 3.7,-3.2 9.5,-0.9 9.7,3.6 0.9,5.2 -6.3,9.6 -10.2,6.3 -4.3,-4 -10.9,-5.7 -17.1,-3.7 -5.7,1.9 -9.8,8.4 -8.7,14.1 0.9,4.9 4.2,9.4 8.7,11.4 1.7,0.8 3.6,1.6 4.2,3.5 1.7,3 -0.1,7.2 -3.4,8.6 z" class="st0" />
            <path style="clip-rule:evenodd;fill:#9e2878;fill-rule:evenodd" id="path1139" d="m 319.5,329.8 c -2.2,0.8 -4.2,-1.3 -3.3,-3.4 0.6,-2.1 3.7,-2.7 4.9,-1.1 1.2,1.4 0.2,3.9 -1.6,4.5 z" class="st0" />
            <path style="clip-rule:evenodd;fill:#9e2878;fill-rule:evenodd" id="path1141" d="m 350.8,286.5 c -2.2,0.7 -4.2,-1.3 -3.3,-3.5 0.6,-2.1 3.7,-2.7 4.9,-1 1.3,1.4 0.3,3.9 -1.6,4.5 z" class="st0" />
            <path style="clip-rule:evenodd;fill:#9e2878;fill-rule:evenodd" id="path1143" d="m 268.6,329.4 c -2.2,0.7 -4.2,-1.3 -3.3,-3.5 0.6,-2 3.7,-2.7 4.9,-1 1.2,1.4 0.2,4 -1.6,4.5 z" class="st0" />
            <path style="clip-rule:evenodd;fill:#9e2878;fill-rule:evenodd" id="path1145" d="m 343.9,307.6 c -0.4,3.7 -5.6,6 -8.2,3.6 -1.9,-1.1 -1.6,-3.6 -2.2,-5.5 -0.4,-2.4 -2.7,-4.3 -5.3,-4.3 -3.2,-0.3 -6.5,2.3 -9.6,1.2 -4.8,-1.2 -6.6,-7.6 -3.2,-11.6 2.9,-4.1 9.4,-4.5 12.1,-0.7 2.4,2.8 0.5,7.1 2.7,10.1 1.7,2.9 5.5,2.7 8.4,1.9 3.2,-0.8 6,2.3 5.3,5.3 z" class="st0" />
            <path style="clip-rule:evenodd;fill:#9e2878;fill-rule:evenodd" id="path1147" d="m 296.2,335.7 c -3.3,2 -7.6,-0.9 -6.8,-4.6 0,-2.3 2.2,-3.6 3.5,-5.3 1.9,-1.9 2.3,-5 1.2,-7.1 -1.3,-2.9 -5,-4 -5.6,-7.3 -1.2,-4.8 3.3,-10.2 8.3,-9.9 4.8,-0.1 8.4,5.1 6.4,9.7 -1.2,3.7 -5.9,4.9 -7.3,8.5 -1.7,3.2 0.4,6.2 2.4,8.3 2.1,2 0.9,6.3 -2.1,7.7 z" class="st0" />
        </g>
    </g>
</svg>
