<svg viewBox="0 0 200 200" xmlns="http://www.w3.org/2000/svg">
    <!-- Background circle -->
    <!-- 背景 -->
    <circle cx="100" cy="100" r="100" fill="#153E7B" />

    <g transform="translate(35, 30) scale(0.08)">
        <g mask="url(#mask0_1_103)">
            <path d="M271.522 191.373C280.166 179.842 318.512 168.532 348.656 159.441C388.553 147.466 466.352 110.876 518.44 104.002C570.528 97.1277 614.193 104.224 646.776 104.002C672.709 103.78 690.222 85.5967 689.554 69.8523C688.442 51.4464 651.874 33.2627 671.601 10.8655C683.126 -2.21796 712.383 -5.54427 726.793 11.5308C737.877 24.3925 744.966 38.5847 746.739 60.9819C748.736 83.8228 727.011 117.751 758.934 160.106C787.305 197.804 861.552 275.861 827.864 403.37C805.478 488.08 726.568 581.66 576.956 600.731C453.497 616.697 353.754 620.91 314.522 745.089C288.811 826.696 325.826 941.344 440.419 967.73C460.146 972.388 491.399 971.058 487.409 967.512C482.754 963.297 467.904 962.854 449.064 954.868C424.017 944.447 372.151 906.311 360.403 846.657C349.986 793.879 361.733 715.819 444.852 673.466C490.291 650.182 514.672 652.178 586.709 638.429C652.095 626.011 679.358 628.672 767.134 562.145C856.235 494.733 875.962 383.634 872.418 330.191C869.534 287.836 884.163 291.828 922.288 366.559C951.102 423.106 974.374 559.928 886.821 672.135C800.822 782.346 678.25 787.666 590.698 768.379C552.796 759.95 506.471 753.744 491.399 792.992C479.208 824.479 505.141 857.965 537.28 857.296C560.332 856.853 577.621 831.354 565.652 814.502C555.455 800.085 548.584 814.058 537.28 802.308C532.183 796.982 532.626 783.901 543.487 779.686C553.682 775.915 568.755 780.791 577.621 786.779C594.244 798.093 596.683 811.842 614.415 813.39C643.451 816.275 653.425 814.277 655.198 856.635C656.307 883.246 649.879 962.636 594.91 1011.42C527.749 1071.07 474.553 1053.55 424.904 1120.74C396.532 1159.11 415.816 1195.03 412.935 1218.54C411.383 1232.5 17.7324 1218.76 17.7324 1218.76C17.7324 1218.76 -26.8193 1161.33 26.1551 1106.77C83.3406 1048.23 138.31 1084.82 195.939 1100.79C267.089 1120.74 282.826 1101 295.682 1075.5C310.31 1046.02 260.439 1037.14 214.114 984.364C122.129 879.7 136.537 750.859 177.542 675.018C218.547 599.178 285.486 557.932 345.775 541.079C413.821 522.008 519.992 533.983 515.78 500.054C510.461 457.921 446.847 497.171 387.445 479.653C343.78 466.791 332.919 424.436 340.677 411.353C361.069 376.094 351.538 369.885 355.306 358.354C359.296 346.157 366.166 356.579 373.481 367.445C384.12 382.968 439.976 388.734 478.1 382.746C515.78 376.759 545.925 352.366 532.626 327.53C513.564 292.271 479.208 268.543 447.512 263.443C412.27 257.9 382.568 285.618 378.579 296.263C373.037 311.12 386.558 318.438 380.13 322.208C368.605 328.86 311.862 283.844 289.032 254.351C266.867 226.632 260.883 205.344 271.522 191.373Z" fill="#FFFFFF" />
            <path d="M529.966 1154.45C533.513 1145.14 522.873 1130.72 521.543 1110.54C520.213 1092.8 528.193 1067.53 549.915 1053.55C585.822 1030.49 621.951 1048.45 641.456 1069.3C654.311 1082.82 651.652 1091.03 692.437 1094.58C714.155 1096.57 738.981 1088.59 715.266 1107.44C695.764 1122.74 663.843 1127.84 643.23 1118.31C622.838 1108.77 610.425 1117.64 613.307 1134.93C617.296 1158.88 632.369 1165.32 643.673 1174.19C656.528 1184.61 652.76 1205.01 637.023 1205.01C620.399 1205.23 506.915 1205.46 494.502 1205.01C475.219 1204.35 457.486 1180.18 476.77 1161.1C494.281 1144.47 523.316 1171.97 529.966 1154.45Z" fill="#FFFFFF" />
            <path d="M771.122 1133.38C789.52 1137.16 824.319 1131.83 832.738 1124.29C843.16 1114.98 819.881 1107.66 781.319 1056.88C736.541 998.113 737.652 928.925 760.924 881.03C779.765 842.443 832.076 767.711 923.392 794.99C962.186 806.516 984.347 835.343 995.206 861.293C1000.3 873.712 1004.96 887.017 997.203 903.426C990.557 918.061 971.273 925.597 953.986 915.62C941.791 908.745 940.904 897.438 939.35 886.349C936.03 862.623 928.491 854.418 915.86 847.987C880.618 830.249 822.99 852.645 855.567 944.672C874.633 998.781 950.659 1055.99 1043.75 1021.62C1092.07 1003.88 1141.94 954.65 1141.5 881.03C1140.83 807.627 1088.74 759.063 1052.62 743.985C996.76 720.477 971.048 735.78 939.132 724.023C916.303 715.6 881.947 678.566 905.662 678.788C923.617 679.01 929.602 683.67 969.943 677.458C990.775 674.132 1040.2 650.847 1116.23 664.818C1156.8 672.135 1306.85 716.262 1341.87 911.848C1361.82 1024.06 1352.29 1079.72 1419 1122.74C1478.85 1161.1 1568.62 1129.84 1569.73 1058.87C1570.61 1011.64 1543.57 980.818 1514.53 977.933C1490.38 975.716 1475.75 985.919 1470.2 997.669C1462.67 1013.42 1469.32 1022.28 1477.52 1031.15C1483.06 1036.92 1490.38 1049.34 1476.63 1060.87C1467.76 1068.19 1448.26 1065.3 1439.18 1047.35C1426.32 1022.28 1426.32 988.797 1444.05 962.636C1468.65 925.822 1516.97 920.721 1552.22 932.253C1592.56 945.559 1646.42 995.228 1633.78 1090.81C1622.93 1170.86 1553.55 1221.64 1485.5 1224.3C1403.71 1227.41 1323.25 1173.96 1282.02 1144.25C1255.43 1125.18 1242.35 1129.61 1251.21 1159.11C1256.09 1175.74 1282.91 1205.23 1268.28 1206.34C1233.04 1208.78 1127.31 1205.9 1096.94 1205.45C1072.57 1205.23 1065.92 1182.84 1080.33 1172.63C1098.27 1160 1124.21 1196.58 1142.38 1179.73C1150.14 1172.63 1119.11 1170.63 1116.23 1145.8C1114.01 1126.51 1130.2 1118.08 1139.28 1105.22C1150.81 1089.04 1119.56 1096.13 1082.98 1134.27C1046.41 1172.19 1078.77 1193.04 1057.71 1212.11C1036.66 1231.4 735.211 1219.2 697.979 1222.53C680.909 1224.08 648.327 1186.61 682.907 1146.69C714.38 1110.76 752.724 1129.61 771.122 1133.38Z" fill="#FFFFFF" />
            <path d="M1124.87 221.753C1034.66 187.824 929.821 182.724 893.031 184.055C879.507 184.498 872.192 187.824 895.908 191.816C1038.66 215.322 1167.21 275.195 1244.12 334.182C1378.45 437.076 1464.44 562.366 1499.69 689.876C1507.89 719.147 1540.91 736.667 1571.94 722.031C1595.44 710.942 1603.86 682.558 1592.11 656.168C1448.26 333.738 1190.04 246.146 1124.87 221.753Z" fill="#FFFFFF" />
            <path d="M762.921 1848.54C1097.17 1865.61 1310.62 1678.01 1385.09 1595.52C1404.82 1573.57 1415.46 1557.16 1357.39 1598.18C1164.55 1734.78 966.617 1780.24 757.379 1748.3C477.878 1705.51 307.43 1540.97 197.934 1352.04C180.867 1321.87 161.362 1297.93 121.465 1309.23C88.4395 1318.77 67.604 1352.04 86.2227 1392.61C239.604 1728.35 557.008 1837.9 762.921 1848.54Z" fill="#FFFFFF" />
            <path d="M441.749 1418.11L428.229 1460.03H410.053L455.492 1326.97H476.105L521.544 1460.03H503.146L488.961 1418.11H441.749ZM485.193 1404.59L472.116 1366.22C469.234 1357.57 467.239 1349.59 465.244 1342.05H464.58C462.806 1349.81 460.59 1358.02 457.93 1366L444.852 1404.36H485.193V1404.59Z" fill="#FFFFFF" />
            <path d="M539.941 1395.5C539.941 1383.3 539.719 1373.32 539.055 1364.67H554.57L555.456 1380.86H555.678C562.549 1369.33 574.075 1362.46 589.812 1362.46C612.864 1362.46 630.153 1381.75 630.153 1410.8C630.153 1445.17 609.317 1462.24 586.931 1462.24C573.854 1462.24 562.993 1456.7 557.23 1447.17H557.008V1499.05H539.941V1395.5ZM557.008 1421C557.008 1423.66 557.23 1425.87 557.895 1428.09C560.997 1440.29 571.415 1448.5 583.828 1448.5C602.225 1448.5 612.864 1433.42 612.864 1411.46C612.864 1392.39 602.668 1376.21 584.493 1376.21C572.745 1376.21 561.663 1384.63 558.116 1397.49C557.451 1399.71 557.008 1402.15 557.008 1404.59V1421Z" fill="#FFFFFF" />
            <path d="M719.479 1436.96C719.479 1445.39 719.697 1453.37 720.808 1459.8H705.293L703.739 1447.61H703.521C698.197 1454.93 687.999 1461.8 674.26 1461.8C655.198 1461.8 645.002 1447.83 645.002 1434.3C645.002 1411.24 665.616 1398.6 702.41 1399.05V1396.83C702.41 1389.07 700.194 1374.65 680.688 1374.65C671.822 1374.65 662.291 1377.54 655.863 1381.75L651.652 1370.44C659.41 1365.33 671.378 1362.01 683.126 1362.01C712.383 1362.01 719.479 1381.97 719.479 1401.04V1436.96ZM702.853 1411.24C683.794 1410.58 662.513 1414.12 662.513 1432.53C662.513 1444.06 670.27 1449.16 678.915 1449.16C691.551 1449.16 699.308 1441.4 702.185 1433.19C702.41 1431.2 703.078 1429.42 703.078 1427.65V1411.24H702.853Z" fill="#FFFFFF" />
            <path d="M815.675 1456.26C811.02 1458.7 801.047 1462.02 788.191 1462.02C759.377 1462.02 740.535 1442.28 740.535 1413.24C740.535 1383.74 760.706 1362.23 791.954 1362.23C802.151 1362.23 811.238 1364.89 815.894 1367.11L811.906 1380.64C807.918 1378.2 801.265 1375.98 791.735 1375.98C769.793 1375.98 758.041 1392.39 758.041 1412.13C758.041 1434.3 772.233 1447.83 791.51 1447.83C801.265 1447.83 807.693 1445.17 812.567 1443.17L815.675 1456.26Z" fill="#FFFFFF" />
            <path d="M836.064 1319.66H853.133V1379.31H853.351C856.235 1374.43 860.666 1369.99 865.989 1367.11C871.088 1364.23 877.291 1362.46 883.72 1362.46C896.576 1362.46 916.964 1370.22 916.964 1403.26V1460.03H899.902V1405.25C899.902 1389.73 894.135 1376.87 877.734 1376.87C866.208 1376.87 857.564 1384.85 854.462 1393.94C853.576 1396.83 853.133 1399.26 853.133 1402.37V1460.03H836.064V1319.66Z" fill="#FFFFFF" />
            <path d="M955.315 1415.23C955.533 1438.74 970.605 1448.5 988.117 1448.5C1000.53 1448.5 1008.29 1446.28 1014.72 1443.61L1017.6 1456.03C1011.61 1458.92 1000.97 1462.02 985.901 1462.02C956.419 1462.02 938.914 1442.28 938.914 1413.68C938.914 1384.63 955.976 1362.23 983.904 1362.23C1014.72 1362.23 1023.14 1389.51 1023.14 1407.02C1023.14 1410.58 1022.92 1413.46 1022.25 1415.01L955.315 1415.23ZM1006.29 1402.82C1006.51 1391.95 1001.64 1374.88 982.357 1374.88C964.845 1374.88 957.087 1390.84 955.758 1402.82H1006.29Z" fill="#FFFFFF" />
            <path d="M1086.97 1326.75H1104.27V1390.84H1104.93C1108.47 1385.74 1112.02 1381.08 1115.34 1376.65L1156.13 1326.75H1177.18L1129.31 1383.3L1181.18 1459.8H1160.78L1117.12 1394.39L1104.48 1409.02V1459.8H1087.2L1086.97 1326.75Z" fill="#FFFFFF" />
            <path d="M1196.69 1364.45L1217.52 1420.77C1219.74 1427.2 1222.18 1434.52 1223.51 1440.51H1223.73C1225.51 1434.97 1227.5 1427.43 1229.71 1420.77L1248.78 1364.67H1267.18L1241.46 1432.53C1229.05 1465.35 1220.63 1482.2 1208.66 1492.63C1200.01 1499.94 1191.59 1502.82 1187.38 1503.71L1182.95 1489.07C1187.6 1487.74 1193.14 1485.08 1198.24 1480.65C1202.9 1476.88 1208.66 1470.22 1212.65 1461.36C1213.54 1459.58 1213.98 1458.47 1213.98 1457.36C1213.98 1456.48 1213.76 1454.93 1212.65 1452.71L1177.41 1364.89L1196.69 1364.45Z" fill="#FFFFFF" />
            <path d="M1283.35 1319.66H1300.42V1459.8H1283.35V1319.66Z" fill="#FFFFFF" />
            <path d="M1349.63 1337.39C1349.63 1343.38 1345.19 1348.04 1338.55 1348.04C1332.12 1348.04 1327.91 1343.38 1328.13 1337.39C1327.91 1331.41 1332.56 1326.53 1338.77 1326.53C1344.98 1326.53 1349.19 1331.41 1349.63 1337.39ZM1329.9 1459.8V1364.45H1346.97V1459.8H1329.9Z" fill="#FFFFFF" />
            <path d="M1376.23 1390.17C1376.23 1380.41 1376.01 1372.21 1375.34 1364.45H1390.63L1391.52 1379.97H1392.19C1396.84 1371.1 1408.15 1362.23 1423.66 1362.23C1436.74 1362.23 1457.13 1369.99 1457.13 1402.59V1459.8H1440.06V1405.03C1440.06 1389.51 1434.3 1376.65 1417.9 1376.65C1406.37 1376.65 1397.73 1384.63 1394.62 1394.39C1393.74 1396.6 1393.29 1399.49 1393.29 1402.37V1459.8H1376.45L1376.23 1390.17Z" fill="#FFFFFF" />
            <path d="M1485.72 1330.3V1322.98H1517.86V1330.3H1506.12V1362.46H1497.47V1330.3H1485.72Z" fill="#FFFFFF" />
            <path d="M1534.7 1322.98L1544.02 1350.04L1552.66 1322.98H1564.85V1362.23H1556.65V1334.29L1547.12 1362.23H1540.47L1530.94 1334.52V1362.23H1522.74V1322.98H1534.7Z" fill="#FFFFFF" />
        </g>
    </g>
</svg>
