<svg viewBox="0 0 200 200" xmlns="http://www.w3.org/2000/svg">
    <style type="text/css">
        .st0{fill:#FFFFFF;}
    </style>

    <!-- Background -->
    <!-- 背景 -->
    <circle cx="100" cy="100" r="100" fill="#e7211a" />

    <!-- Kyuubi emblem -->
    <!-- Kyuubi徽章 -->
    <g transform="translate(-310, 20) scale(0.25)">
        <path class="st0" d="m 1890.599,170.392 c -8.637,2.205 -17.685,3.38 -27.001,3.38 -46.443,0 -86.105,-29.021 -101.849,-69.915 l -0.109,-0.212 c -0.514,-1.222 -0.667,-2.58 -0.799,-3.984 -0.542,-5.578 2.146,-9.658 8.015,-10.259 1.245,-0.112 2.506,-0.169 3.779,-0.169 14.585,0 27.44,7.392 35.032,18.631 v -0.537 c -27.977,-47.78 -79.854,-79.871 -139.222,-79.871 -5.245,0 -10.435,0.251 -15.555,0.742 l 0.491,-0.514 c 7.586,-6.769 17.599,-10.885 28.565,-10.885 6.553,0 12.763,1.473 18.318,4.099 l -5.343,-2.888 C 1671.99,6.485 1646.092,0 1618.681,0 1527.866,0 1453.686,71.2 1448.908,160.822 l 0.017,-0.013 c 0,14.636 11.811,26.51 26.418,26.624 29.701,-4.441 53.442,-28.702 61.771,-37.052 12.193,9.864 27.719,15.761 44.622,15.761 1.747,0 3.476,-0.063 5.188,-0.183 -23.129,-6.496 -41.089,-28.074 -41.089,-53.271 0,-21.777 12.662,-40.598 31.02,-49.491 16.092,31.522 44.405,57.152 78.907,67.381 17.839,5.2 34.747,12.078 40.889,28.455 11.428,29.639 40.187,50.674 73.86,50.674 4.989,0 9.876,-0.462 14.613,-1.353 l 0.462,-0.087 c -16.354,20.369 -41.465,33.406 -69.619,33.406 l -39.685,2.198 c -31.567,0 -57.163,25.592 -57.163,57.165 0,21.526 11.902,40.26 29.478,50.01 16.423,8.191 33.908,8.191 52.077,8.191 64.145,0 119.939,-35.751 148.549,-88.41 -22.799,0 -42.528,-12.971 -51.644,-30.815 v -0.142 c 43.088,-2.204 79.274,-30.547 93.02,-69.478" id="path22" />
        <path class="st0" d="m 1682.823,201.459 c -30.928,-14.242 -53.151,-6.839 -53.151,-6.839 12.73,-42.206 53.151,6.839 53.151,6.839" id="path24" />
    </g>

    <!-- Kyuubi Text -->
    <!-- Kyuubi文本 -->
    <text class="st0" x="100" y="150" font-family="Arial, sans-serif" font-weight="bold" font-size="24" text-anchor="middle">
        KYUUBI
    </text>

    <!-- Apache Text -->
    <!-- Apache文本 -->
    <text class="st0" x="100" y="170" font-family="Arial, sans-serif" font-size="16" text-anchor="middle">
        Apache
    </text>
</svg>
