<svg viewBox="0 0 200 200" xmlns="http://www.w3.org/2000/svg">
    <!-- Background -->
    <!-- 背景 -->
    <circle cx="100" cy="100" r="100" fill="#FFFFFF" />

    <circle cx="100" cy="100" r="100" fill="none" stroke="#E1E8ED" stroke-width="2"/>

    <g transform="translate(30, 45) scale(2)">
        <svg width="128px" version="1.1" xmlns="http://www.w3.org/2000/svg" xmlns:xlink="http://www.w3.org/1999/xlink">
            <defs>
                <path d="M57.7180941,0 C48.4856472,0.002494167 40.9971985,7.48365215 40.9889486,16.7184014 L40.9889486,16.7184014 L40.9889486,17.1742584 C40.9889486,18.9497216 42.4282748,20.3890478 44.2033543,20.3890478 L44.2033543,20.3890478 C45.9788175,20.3890478 47.4181437,18.9497216 47.4181437,17.1742584 L47.4181437,17.1742584 L47.4181437,16.7184014 C47.4100856,13.9878641 48.4971587,11.3676457 50.4366613,9.44502671 L50.4366613,9.44502671 C52.3826872,7.50149504 55.0238182,6.41480566 57.7741169,6.42689278 L57.7741169,6.42689278 L58.1142829,6.42689278 C63.5703692,6.43303227 67.9919517,10.8540392 67.9984749,16.3103173 L67.9984749,16.3103173 L67.9984749,17.9198224 L67.9984749,17.9202062 C67.9984749,23.602686 63.3917484,28.2094125 57.7092686,28.2094125 L57.7092686,28.2094125 L46.3201346,28.2094125 C40.762555,28.2030811 36.2590487,23.6997667 36.2527173,18.1423789 L36.2527173,18.1423789 L36.2527173,5.06584503 C36.2527173,3.93694668 35.8026161,2.85467006 35.0017966,2.05903079 L35.0017966,2.05903079 C33.3414489,0.409043388 30.6577252,0.417485184 29.0077378,2.07783297 L29.0077378,2.07783297 L21.0079849,10.1272773 C21.0020373,10.1332249 20.9962815,10.1389807 20.9907176,10.1445446 L20.9907176,10.1445446 C19.3990553,11.7266139 16.8262261,11.7191314 15.2441568,10.1272773 L15.2441568,10.1272773 L7.24459584,2.08128643 C6.44895656,1.28085068 5.3668718,0.830557611 4.23816531,0.830557611 L4.23816531,0.830557611 C1.89710179,0.830941329 0,2.72881056 0,5.06968221 L0,5.06968221 L0,31.6507874 C0,33.4260587 1.43913436,34.865193 3.21440568,34.865193 L3.21440568,34.865193 L3.21498126,34.865193 C4.99044445,34.8644256 6.42938695,33.4249075 6.42881137,31.6494443 L6.42881137,31.6494443 L6.42881137,10.3782289 L10.6840521,14.6589869 C10.699209,14.6741437 10.7143658,14.6893006 10.7295227,14.7046493 L10.7295227,14.7046493 C14.8393343,18.7891356 21.4822604,18.7687985 25.5669385,14.6589869 L25.5669385,14.6589869 L29.8229467,10.3765022 L29.8229467,18.1437219 C29.833307,27.2501175 37.2129716,34.6295902 46.3191753,34.6399506 L46.3191753,34.6399506 L57.7085011,34.6399506 C66.9419074,34.6399506 74.4270944,27.1545717 74.4270944,17.9213573 L74.4270944,17.9213573 L74.4270944,16.3116603 C74.4159666,7.30714187 67.1188014,0.010360386 58.1140911,0 L58.1140911,0 L57.7180941,0 Z" id="path-3"></path>
                <linearGradient x1="11.4628916%" y1="60.3917701%" x2="67.8629634%" y2="42.792361%" id="linearGradient-5">
                    <stop stop-color="#0049EF" offset="0%"></stop>
                    <stop stop-color="#26FFF2" offset="100%"></stop>
                </linearGradient>
            </defs>
            <g id="官网V0.3" stroke="none" stroke-width="1" fill="none" fill-rule="evenodd">
                <g id="公司页-英文" transform="translate(-120.000000, -56.000000)">
                    <g id="编组-6" transform="translate(0.000000, 40.000000)">
                        <g id="公司logo英文" transform="translate(120.000000, 16.000000)">
                            <g id="公司-logo">
                                <g id="编组" mask="url(#mask-2)">
                                    <g transform="translate(0.000000, 7.000000)">
                                        <g transform="translate(0.000000, 0.000192)">
                                            <mask id="mask-4" fill="white">
                                                <use xlink:href="#path-3"></use>
                                            </mask>
                                            <g id="Clip-2"></g>
                                            <path d="M57.7180941,0 C48.4856472,0.002494167 40.9971985,7.48365215 40.9889486,16.7184014 L40.9889486,16.7184014 L40.9889486,17.1742584 C40.9889486,18.9497216 42.4282748,20.3890478 44.2033543,20.3890478 L44.2033543,20.3890478 C45.9788175,20.3890478 47.4181437,18.9497216 47.4181437,17.1742584 L47.4181437,17.1742584 L47.4181437,16.7184014 C47.4100856,13.9878641 48.4971587,11.3676457 50.4366613,9.44502671 L50.4366613,9.44502671 C52.3826872,7.50149504 55.0238182,6.41480566 57.7741169,6.42689278 L57.7741169,6.42689278 L58.1142829,6.42689278 C63.5703692,6.43303227 67.9919517,10.8540392 67.9984749,16.3103173 L67.9984749,16.3103173 L67.9984749,17.9198224 L67.9984749,17.9202062 C67.9984749,23.602686 63.3917484,28.2094125 57.7092686,28.2094125 L57.7092686,28.2094125 L46.3201346,28.2094125 C40.762555,28.2030811 36.2590487,23.6997667 36.2527173,18.1423789 L36.2527173,18.1423789 L36.2527173,5.06584503 C36.2527173,3.93694668 35.8026161,2.85467006 35.0017966,2.05903079 L35.0017966,2.05903079 C33.3414489,0.409043388 30.6577252,0.417485184 29.0077378,2.07783297 L29.0077378,2.07783297 L21.0079849,10.1272773 C21.0020373,10.1332249 20.9962815,10.1389807 20.9907176,10.1445446 L20.9907176,10.1445446 C19.3990553,11.7266139 16.8262261,11.7191314 15.2441568,10.1272773 L15.2441568,10.1272773 L7.24459584,2.08128643 C6.44895656,1.28085068 5.3668718,0.830557611 4.23816531,0.830557611 L4.23816531,0.830557611 C1.89710179,0.830941329 0,2.72881056 0,5.06968221 L0,5.06968221 L0,31.6507874 C0,33.4260587 1.43913436,34.865193 3.21440568,34.865193 L3.21440568,34.865193 L3.21498126,34.865193 C4.99044445,34.8644256 6.42938695,33.4249075 6.42881137,31.6494443 L6.42881137,31.6494443 L6.42881137,10.3782289 L10.6840521,14.6589869 C10.699209,14.6741437 10.7143658,14.6893006 10.7295227,14.7046493 L10.7295227,14.7046493 C14.8393343,18.7891356 21.4822604,18.7687985 25.5669385,14.6589869 L25.5669385,14.6589869 L29.8229467,10.3765022 L29.8229467,18.1437219 C29.833307,27.2501175 37.2129716,34.6295902 46.3191753,34.6399506 L46.3191753,34.6399506 L57.7085011,34.6399506 C66.9419074,34.6399506 74.4270944,27.1545717 74.4270944,17.9213573 L74.4270944,17.9213573 L74.4270944,16.3116603 C74.4159666,7.30714187 67.1188014,0.010360386 58.1140911,0 L58.1140911,0 L57.7180941,0 Z" id="Fill-1" fill="url(#linearGradient-5)" mask="url(#mask-4)"></path>
                                        </g>
                                        <g>
                                            <path d="M14.2631818,21.143092 C12.8712447,21.143092 11.7433057,22.6658769 11.7433057,24.5443684 C11.7433057,26.4228598 12.8716284,27.9456447 14.2631818,27.9456447 C15.6547351,27.9456447 16.7834416,26.4220924 16.7834416,24.5443684 C16.7834416,22.6664525 15.6564618,21.143092 14.2631818,21.143092" id="Fill-7" fill="#004FFF"></path>
                                            <path d="M23.017305,21.2108182 C21.625368,21.2108182 20.4968533,22.733795 20.4968533,24.6120946 C20.4968533,26.4903942 21.625368,28.0133709 23.017305,28.0133709 C24.4092421,28.0133709 25.5375649,26.4903942 25.5375649,24.6120946 C25.5375649,22.733795 24.4096258,21.2108182 23.017305,21.2108182" id="Fill-9" fill="#004FFF"></path>
                                        </g>
                                    </g>
                                </g>
                            </g>
                        </g>
                    </g>
                </g>
            </g>
        </svg>
    </g>
</svg>
