<svg viewBox="0 0 200 200" xmlns="http://www.w3.org/2000/svg">
    <style id="style1117" type="text/css">
        .st0{fill-rule:evenodd;clip-rule:evenodd;fill:#9E2878;}
    </style>

    <!-- Background circle -->
    <!-- 背景 -->
    <circle cx="100" cy="100" r="100" fill="#FFFFFF" />

    <circle cx="100" cy="100" r="100" fill="none" stroke="#E1E8ED" stroke-width="2" />

    <g transform="translate(30, 60) scale(0.3)">
        <path d="M357 42C393 42 423 52 445 70 484 103 469 145 462 158 452 175 437 191 416 200 431 182 438 171 442 152 447 133 439 108 426 95 413 80 392 60 343 59 288 59 267 71 237 97 253 66 308 42 357 42ZM18 135H29V142C37 135 44 135 48 135 54 135 58 140 57 143 68 134 75 134 81 135 86 136 89 140 85 152L73 185 59 185 69 158C71 153 73 146 67 146 64 146 59 147 56 154L43 185H29L39 157C41 151 42 146 37 146 32 146 27 150 25 156L14 185H0L18 135ZM161 135 174 135 172 142C181 135 190 134 195 135 200 136 202 139 202 144 202 147 201 152 199 158L189 186H173L184 158C186 153 187 146 182 146 176 146 171 150 168 157L156 186 141 186 161 135ZM255 143C258 151 255 155 251 159 244 166 230 167 220 167 220 178 237 174 244 172V181C236 186 227 186 221 186 214 186 206 180 206 171 206 161 215 144 224 139 233 134 250 131 255 143ZM224 155C230 157 243 154 243 150 243 147 241 146 237 146 233 146 228 147 224 155ZM292 122 288 135 298 135 294 146 283 146 276 166C272 176 278 174 284 174L282 182C281 184 281 185 276 185L267 185C261 185 257 180 259 174L269 146 263 146 267 135 273 135 277 125 292 122ZM132 135C150 140 146 155 143 163 135 181 122 188 107 186 94 184 85 176 95 155 103 140 115 132 132 135ZM110 155C106 161 104 170 109 173 116 176 124 169 127 163 129 159 133 149 127 146 122 144 114 149 110 155Z" fill="#004" />
        <path d="M418 27C447 44 461 71 462 75 442 50 422 43 415 40 389 29 355 28 327 33 252 49 222 98 219 105L167 118C177 97 194 58 253 25 288 6 359-6 418 27ZM370 102 342 185H328L329 179C322 185 308 188 303 184 295 177 299 158 308 148 319 135 335 133 343 135L353 106ZM323 151C317 156 309 172 320 174 328 175 336 158 338 152 341 144 329 146 323 151Z M387 112 378 139C388 135 396 133 403 138 410 144 405 158 402 164 398 172 392 179 384 182 372 187 363 187 356 184 347 179 351 167 353 162L371 115ZM376 150C371 155 362 172 369 174 379 176 390 161 391 154 392 144 382 144 376 150Z" fill="#06f" />
    </g>
</svg>

