<svg viewBox="0 0 200 200" xmlns="http://www.w3.org/2000/svg">
    <!-- Background circle -->
    <!-- 背景 -->
    <circle cx="100" cy="100" r="100" fill="#FFFFFF" />

    <circle cx="100" cy="100" r="100" fill="none" stroke="#E1E8ED" stroke-width="2" />

    <g transform="translate(20, 20) scale(0.6)">
        <path d="M 219.500 171.637 C 195.276 172.880, 146.033 184.144, 144.225 188.856 C 143.631 190.404, 150.946 213, 152.041 213 C 152.434 213, 154.498 212.257, 156.628 211.348 C 177.589 202.408, 205.460 197.648, 233.751 198.177 L 251.003 198.500 251.001 185.250 L 251 172 244.647 172 C 241.152 172, 235.640 171.838, 232.397 171.639 C 229.154 171.441, 223.350 171.440, 219.500 171.637" stroke="none" fill="#07c846" fill-rule="evenodd" />
        <path d="M 120 73.074 C 94.150 82.542, 52.114 87.571, 33.750 83.393 L 31 82.767 31 96.338 L 31 109.909 34.600 110.585 C 39.761 111.553, 79.558 110.427, 85.500 109.144 C 88.250 108.551, 96.124 106.882, 102.997 105.436 C 114.666 102.982, 137.609 95.862, 139.116 94.228 C 140.236 93.013, 132.594 68.870, 131.167 69.114 C 130.800 69.177, 125.775 70.959, 120 73.074" stroke="none" fill="#fca404" fill-rule="evenodd" />
        <path d="M 211.500 87.992 C 196.042 88.874, 183.892 90.335, 174 92.502 C 170.425 93.286, 163.225 94.852, 158 95.984 C 149.532 97.817, 133.273 102.586, 116.777 108.075 C 100.847 113.374, 67.207 117.511, 46.113 116.763 L 31 116.227 31 155.028 L 31 193.829 38.750 194.559 C 53.239 195.924, 93.769 193.347, 109 190.094 C 126.812 186.289, 142.228 182.458, 145.500 181.022 C 166.667 171.733, 204.060 165.511, 234.893 166.147 L 252.001 166.500 252 127.250 L 252 88 244.647 88 C 240.602 88, 234.640 87.819, 231.397 87.597 C 228.154 87.375, 219.200 87.553, 211.500 87.992 M 251.392 186 C 251.392 193.425, 251.549 196.463, 251.742 192.750 C 251.934 189.037, 251.934 182.963, 251.742 179.250 C 251.549 175.537, 251.392 178.575, 251.392 186" stroke="none" fill="#0483fb" fill-rule="evenodd" />
    </g>
</svg>
