<svg xmlns="http://www.w3.org/2000/svg" viewBox="0 0 200 200">
    <!-- 背景圆形 -->
    <!-- Background circle -->
    <circle cx="100" cy="100" r="100" fill="#C7154A" />

    <g transform="translate(65, 30) scale(0.4)">
        <g id="Page-1" stroke="none" stroke-width="1" fill="#FFFFFF" fill-rule="evenodd">
            <path d="M101.5,12.8027896 C98.5,9.80278959 98.3,6.40278959 101.1,2.90278959 C105.2,-2.39721041 112,0.60278959 112,7.60278959 C112,14.6027896 106.1,17.5027896 101.5,12.8027896 Z" id="Path" fill="#FFFFFF" fill-rule="nonzero" transform="translate(105.559592, 7.651395) scale(-1, 1) rotate(-180.000000) translate(-105.559592, -7.651395) "></path>
            <path d="M50.6,31.8826375 C46.7,27.9826375 47.8,21.2826375 52.7,19.3826375 C58.6,17.1826375 63.9,26.6826375 59.4,31.5826375 C57.3,33.8826375 52.7,34.0826375 50.6,31.8826375 Z" id="Path" fill="#FFFFFF" fill-rule="nonzero" transform="translate(54.663061, 26.241319) scale(-1, 1) rotate(-180.000000) translate(-54.663061, -26.241319) "></path>
            <path d="M101.2,325.394269 C99,323.894269 99,323.694269 99,294.694269 C99,262.294269 98.8,260.994269 93,260.994269 C87.5,260.994269 87,262.594269 87,279.594269 C87,294.894269 87,295.094269 84.4,297.594269 C82.5,299.594269 81.3,299.994269 79.2,299.494269 C73.9,298.194269 74,298.994269 74,265.494269 L74,234.294269 L79.6,237.194269 C84.3,239.494269 86.6,239.994269 92.6,239.994269 C106.7,239.994269 117.2,231.694269 120.6,217.794269 C122.1,211.894269 122.1,210.794269 120.6,204.994269 C117.9,194.594269 110.3,186.494269 100.6,183.894269 C94.2,182.194269 85,183.194269 79.1,186.194269 L74,188.894269 L74,174.394269 C74,160.294269 73.9,159.794269 71.5,157.494269 C70.2,156.094269 68.4,154.994269 67.5,154.994269 C66.6,154.994269 64.8,156.094269 63.5,157.494269 L61,159.894269 L61,233.794269 L61,307.694269 L58.5,308.794269 C55.8,309.994269 53.5,309.594269 50.8,307.194269 C49.4,306.094269 49,304.094269 49,299.294269 L49,292.994269 L37.5,292.994269 L25.9,292.994269 L24.1,288.794269 C22.3,284.394269 6.8,229.494269 2.8,213.494269 C1.1,206.394269 0.7,201.594269 0.7,190.494269 C0.7,174.194269 2.6,165.494269 8.9,152.494269 C17.9,133.794269 30.6,121.694269 53.6,110.194269 C66.1,103.894269 68.9,101.594269 72.4,94.4942686 C76.1,86.8942686 77.7,78.6942686 79.1,59.6942686 C80.1,46.3942686 80,43.5942686 78.9,42.5942686 C78.1,41.8942686 68.5,38.4942686 57.5,35.0942686 C46.5,31.5942686 37.3,28.5942686 37.1,28.3942686 C36.9,28.1942686 58,27.9942686 84.1,28.0942686 C112.1,28.0942686 130.5,28.4942686 129,28.9942686 C127.6,29.4942686 117.8,32.6942686 107.1,35.9942686 L87.7,42.1942686 L88.3,56.3942686 C89,72.9942686 90.2,81.1942686 93.2,89.7942686 C96.6,99.4942686 100.2,102.894269 114.6,110.194269 C141.6,123.794269 157,139.994269 164,162.494269 C167.2,172.494269 167.8,190.894269 165.5,205.494269 C162.3,226.194269 144.6,289.394269 141.3,291.694269 C140.2,292.594269 135.3,292.994269 125.8,292.994269 L112,292.994269 L112,307.994269 C112,321.694269 111.8,323.194269 110,324.994269 C107.6,327.394269 104.3,327.594269 101.2,325.394269 Z" id="Path" fill="#FFFFFF" fill-rule="nonzero" transform="translate(83.793706, 177.497134) scale(-1, 1) rotate(-180.000000) translate(-83.793706, -177.497134) "></path>
            <path d="M75.7,41.0980294 C73.4,38.5980294 73.5,32.5980294 75.8,30.5980294 C77.7,28.7980294 81.7,28.3980294 83.6,29.6980294 C85.6,30.9980294 87.2,35.0980294 86.6,37.3980294 C85.3,42.6980294 79,44.7980294 75.7,41.0980294 Z" id="Path" fill="#FFFFFF" fill-rule="nonzero" transform="translate(80.375954, 35.949015) scale(-1, 1) rotate(-180.000000) translate(-80.375954, -35.949015) "></path>
            <path d="M85,156.45979 C79.5,152.65979 77.5,149.15979 77.5,143.15979 C77.5,134.65979 83.1,128.65979 91.7,127.95979 C100.8,127.25979 108,134.15979 108,143.65979 C108,155.25979 94.3,162.75979 85,156.45979 Z" id="Path" fill="#FFFFFF" fill-rule="nonzero" transform="translate(92.750000, 143.329895) scale(-1, 1) rotate(-180.000000) translate(-92.750000, -143.329895) "></path>
            <path d="M409.753404,96.8902798 C403.035734,93.3600049 399.676898,87.8819922 399.054891,79.9693071 C398.557286,72.056622 401.418516,66.7003428 408.633793,61.9527318 C414.605056,57.9355224 425.179167,58.057256 431.274832,62.0744654 C443.092956,69.8654169 442.844154,87.3950577 430.901628,96.0381445 C426.049976,99.5684194 415.600266,100.055354 409.753404,96.8902798 Z" id="Path" fill="#FFFFFF" fill-rule="nonzero" transform="translate(419.500000, 79.000000) scale(-1, 1) rotate(-180.000000) translate(-419.500000, -79.000000) "></path>
        </g>
    </g>
</svg>
