<svg viewBox="0 0 200 200" xmlns="http://www.w3.org/2000/svg">
    <circle cx="100" cy="100" r="100" fill="#249EDC" />

    <g transform="translate(35, 35) scale(4)">
        <path fill="#FFFFFF" d="M140.304 9.45h-.375v.455h.375c.175 0 .287-.078.287-.223 0-.154-.105-.232-.287-.232Zm-.837-.422h.847c.461 0 .767.249.767.638a.606.606 0 0 1-.306.534l.331.474v.094h-.48l-.322-.456h-.375v.456h-.462v-1.74Zm2.362.902c0-.93-.627-1.635-1.588-1.635-.942 0-1.569.671-1.569 1.635 0 .92.627 1.636 1.569 1.636.961 0 1.588-.706 1.588-1.636Zm.394 0c0 1.093-.741 2.007-1.979 2.007-1.229 0-1.963-.92-1.963-2.007 0-1.092.732-2.006 1.963-2.006 1.238.002 1.979.913 1.979 2.006ZM31.267 13.821l-3.822 2.181 3.822 2.175a1.973 1.973 0 0 1 .736 2.717 2.03 2.03 0 0 1-2.748.725l-6.845-3.9a1.967 1.967 0 0 1-.914-1.135 1.918 1.918 0 0 1-.091-.646c.005-.157.028-.313.07-.47.137-.485.457-.92.932-1.194l6.843-3.895a2.026 2.026 0 0 1 2.749.73c.561.95.233 2.162-.732 2.712ZM27.648 24.39l-6.84-3.893a2.001 2.001 0 0 0-1.166-.26 1.994 1.994 0 0 0-1.862 1.98v7.796c0 1.1.897 1.988 2.012 1.988 1.114 0 2.014-.89 2.014-1.988v-4.36l3.83 2.181a2.022 2.022 0 0 0 2.749-.725c.555-.95.228-2.17-.737-2.72Zm-7.894-7.625-2.844 2.802a.566.566 0 0 1-.357.15h-.835a.577.577 0 0 1-.356-.15l-2.844-2.802a.558.558 0 0 1-.147-.35v-.826a.57.57 0 0 1 .147-.354l2.842-2.803a.575.575 0 0 1 .356-.147h.837a.57.57 0 0 1 .357.147l2.844 2.803a.57.57 0 0 1 .147.354v.826c0 .11-.065.27-.147.35Zm-2.273-.778a.587.587 0 0 0-.151-.354l-.823-.81a.582.582 0 0 0-.357-.147h-.033a.576.576 0 0 0-.354.147l-.823.81a.578.578 0 0 0-.144.354v.032c0 .113.063.27.144.35l.823.812c.082.08.24.148.354.148h.033a.587.587 0 0 0 .357-.148l.823-.812a.569.569 0 0 0 .151-.35v-.032ZM4.624 7.606l6.842 3.898c.369.21.777.292 1.168.26a2 2 0 0 0 1.863-1.983V1.986C14.497.89 13.595 0 12.485 0c-1.114 0-2.014.89-2.014 1.986v4.362L6.638 4.162a2.026 2.026 0 0 0-2.749.727 1.974 1.974 0 0 0 .735 2.718Zm15.018 4.158c.392.032.8-.05 1.166-.26l6.84-3.897a1.977 1.977 0 0 0 .737-2.718 2.027 2.027 0 0 0-2.749-.727l-3.83 2.186V1.986C21.806.89 20.906 0 19.792 0c-1.115 0-2.012.89-2.012 1.986V9.78c-.003 1.047.818 1.907 1.862 1.983Zm-7.008 8.472a2.001 2.001 0 0 0-1.168.26l-6.842 3.893a1.98 1.98 0 0 0-.737 2.72 2.027 2.027 0 0 0 2.749.724l3.833-2.181v4.36c0 1.1.9 1.988 2.014 1.988 1.11 0 2.012-.89 2.012-1.988v-7.795a1.992 1.992 0 0 0-1.86-1.981Zm-1.855-3.652a1.98 1.98 0 0 0 .09-.646 1.984 1.984 0 0 0-1.01-1.664L3.023 10.38c-.965-.548-2.196-.223-2.749.73-.559.95-.228 2.162.737 2.712l3.821 2.181-3.823 2.175a1.973 1.973 0 0 0-.737 2.717 2.028 2.028 0 0 0 2.749.725l6.838-3.9c.464-.26.776-.672.92-1.135ZM95.647" />
    </g>
</svg>
