<svg viewBox="0 0 200 200" xmlns="http://www.w3.org/2000/svg">
    <!-- Background circle -->
    <!-- 背景 -->
    <circle cx="100" cy="100" r="100" />

    <g transform="translate(25, 25) scale(4)">
        <g clip-path="url(#a)">
            <path fill="url(#b)" d="m16.549 17.102-.002-3.13a.703.703 0 0 0-.206-.498l-2.71-2.716-1.892 2.087 4.42 4.419c.143.144.39.042.39-.162Z" />
            <path fill="url(#c)" d="m10.56 24.651-5.327-5.315-1.903 2.068 7.046 7.04c.145.144.39.042.39-.162V25.15a.703.703 0 0 0-.206-.498Z" />
            <path fill="#F5FF80" d="M17.657.116C8.096.776.455 8.69.095 18.266c-.352 9.352 6.078 17.263 14.76 19.204L3.28 25.894a.882.882 0 0 1-.259-.625l.01-3.74c0-.156.188-.235.299-.124l1.903-2.068a.306.306 0 0 1 0-.433l1.832-1.826a.306.306 0 0 1 .432 0l6.187 6.186c.262.263.41.62.41.992v6.455c0 .93.37 1.821 1.027 2.479l4.717 4.717a18.823 18.823 0 0 0 3.496-.48L17.36 31.45a1.576 1.576 0 0 1-.462-1.114v-6.238a3.855 3.855 0 0 0-1.129-2.727l-6.28-6.28a.306.306 0 0 1 0-.432l1.82-1.813a.306.306 0 0 1 .431 0l1.892-2.086a1.923 1.923 0 0 1-.103-.13c-.54-.73-.868-1.931-.485-3.286.23-.868.705-1.522 1.583-2.317a.212.212 0 0 1 .277-.006l2.273 1.97.448.388c.172.15.377.255.599.308L25.31 9.37c.082.02.158.062.218.12l7.28 7.262c.127.122.199.291.199.468v1.544c0 .237-.06.47-.174.679l-3.603 6.563a.633.633 0 0 1-.808.277l-1.66-.724h-6.07a.706.706 0 0 0-.705.706v2.706c0 .373.147.73.41.994l6.285 6.334c6.62-2.947 11.236-9.586 11.236-17.303 0-10.898-9.206-19.645-20.262-18.881Z" />
        </g>
    </g>
</svg>
